<svg xmlns="http://www.w3.org/2000/svg" viewBox="0 0 861.09 107.51"><defs><style>.a{fill:#2c3a3e;}.b{fill:#73777a;}.c{fill:#eabf3e;}</style></defs><path class="a" d="M162.73,83.14q-12,0-18.79-6.62t-6.79-18.4V25.74H146v31.7q0,8.39,4.34,12.91t12.47,4.52q8,0,12.35-4.52t4.35-12.91V25.74h8.83V58.12q0,11.77-6.79,18.4T162.73,83.14Z"/><path class="a" d="M269.1,24.72q9.76,0,15.44,6.45t5.68,17.55v33.4h-8.83V50q0-8.16-3.61-12.51T267.51,33.1q-8.34,0-12.8,5.09t-4.46,13.25V82.12h-8.83V50q0-8.16-3.61-12.51T227.55,33.1q-8.36,0-12.81,5.09t-4.45,13.25V82.12h-8.72V25.85h8.49L210,36.38q5.76-11.66,19.13-11.66a20.61,20.61,0,0,1,11.6,3.17,18.87,18.87,0,0,1,7.19,9.4,21.18,21.18,0,0,1,8.69-9.52A25.47,25.47,0,0,1,269.1,24.72Z"/><rect class="a" x="304.03" y="25.85" width="8.83" height="56.27"/><rect class="a" x="304.03" y="9.24" width="8.83" height="9.81"/><rect class="a" x="304.03" y="25.85" width="8.83" height="56.27"/><rect class="a" x="304.03" y="9.24" width="8.83" height="9.81"/><path class="a" d="M342.41,83.25a21.73,21.73,0,0,1-10.24-2.09,21.35,21.35,0,0,1-6.17-4.7,17.61,17.61,0,0,1-3.74-6.68l8.36-2.49a10.48,10.48,0,0,0,2.17,4A11.75,11.75,0,0,0,336.45,74a13.36,13.36,0,0,0,6.14,1.19q5.4,0,8.21-2.14a7.22,7.22,0,0,0,2.82-6.1q0-4-2.32-5.65a20.45,20.45,0,0,0-7.19-2.83L337,56.69Q323.16,53.3,323.17,41q0-7.45,5.15-11.75t14-4.3a20.83,20.83,0,0,1,15.06,5.36,14.91,14.91,0,0,1,3.51,5.4l-8,2.83a9.31,9.31,0,0,0-2-2.94,10.84,10.84,0,0,0-3.27-2,13.77,13.77,0,0,0-5.29-.85q-4.85,0-7.54,2a6.7,6.7,0,0,0-2.7,5.66q0,4,2.36,5.61A23.06,23.06,0,0,0,341.58,49l7.34,1.7q13.63,3.27,13.65,15.73,0,7.82-5.5,12.34T342.41,83.25Z"/><path class="a" d="M128.8,74.81a20,20,0,0,1-3.43.29q-6.11-.1-8.6-2.94t-2.49-9.63V9.77h-8.83V63q0,10.31,4.69,15.28t14.44,5a32.2,32.2,0,0,0,5.38-.42Z"/><path class="a" d="M412.76,46.43q-4.33-9.18-14.42-9.18a17.29,17.29,0,0,0-6.61,1.22,15.43,15.43,0,0,0-5.2,3.44,15.28,15.28,0,0,0-3.43,5.36,20.16,20.16,0,0,0,0,13.76,14.88,14.88,0,0,0,8.53,8.7,17,17,0,0,0,6.5,1.22q11,0,15-9.49l12.3,4.74a28,28,0,0,1-10.39,12.45q-7,4.6-17.05,4.6a31.07,31.07,0,0,1-11.65-2.16,28.31,28.31,0,0,1-9.33-6,27.62,27.62,0,0,1-6.2-9.23,29.87,29.87,0,0,1-2.27-11.75,29.93,29.93,0,0,1,2.22-11.6,27.15,27.15,0,0,1,6.2-9.23,29.11,29.11,0,0,1,9.43-6.11,31.44,31.44,0,0,1,11.91-2.22q9.78,0,16.39,4.54a31,31,0,0,1,10.34,12.21Z"/><path class="a" d="M467.74,82.35,454.63,63.68l-13,18.67H425.78L446.46,53.8,426.78,25.85h15.94l11.91,18,11.8-18h15.84L462.8,53.8l20.78,28.55Z"/><path class="b" d="M558.84,82.27V44.38c0-1,0-2.33.06-3.94s.17-3.46.42-5.56h-.21c-.39,1.19-.77,2.24-1.13,3.15s-.78,1.84-1.24,2.78L537,82.27h-3.57L513.45,41c-.49-1-.92-2-1.29-2.92a25.67,25.67,0,0,1-1-3.22H511c.1,1.19.18,2.52.24,4s.07,3.18.07,5.07V82.27h-6.45V25.85h8.24l18,37.53,2.26,4.75A28.27,28.27,0,0,1,535,72.56h.31c.28-.84.74-2,1.37-3.59s1.38-3.23,2.25-5l18.27-38.11h8.18V82.27Z"/><path class="b" d="M607.93,82.27V72.72h-.21a19.7,19.7,0,0,1-7.16,8,19,19,0,0,1-10.26,2.83,21.09,21.09,0,0,1-7-1.1,15.21,15.21,0,0,1-5.3-3.12,13.85,13.85,0,0,1-3.36-4.86,16.21,16.21,0,0,1-1.18-6.24q0-7.3,4.52-11.63t13.64-5.64l16.32-2.36q0-15.48-12-15.48-9.39,0-17.42,6.87V32.62a23.34,23.34,0,0,1,3.8-2.18,36.18,36.18,0,0,1,4.49-1.67,36.9,36.9,0,0,1,4.86-1.11,31.36,31.36,0,0,1,4.85-.39q9,0,13.57,5t4.59,15V82.27ZM594.08,56.19a41.54,41.54,0,0,0-6.2,1.31,12.72,12.72,0,0,0-4.25,2.12,7.94,7.94,0,0,0-2.46,3.31,13,13,0,0,0-.79,4.86,10.23,10.23,0,0,0,.76,4,9,9,0,0,0,2.2,3.18A10.15,10.15,0,0,0,586.86,77a14,14,0,0,0,4.7.74,15.52,15.52,0,0,0,11.73-5.15,17.4,17.4,0,0,0,3.41-5.77,21,21,0,0,0,1.23-7.29v-5.3Z"/><path class="b" d="M661.68,82.27v-31q0-18.21-13.22-18.21A15.21,15.21,0,0,0,642,34.49a15.56,15.56,0,0,0-5.17,3.85,18.21,18.21,0,0,0-3.41,5.85,21.32,21.32,0,0,0-1.23,7.33V82.27h-6.72V28.53h6.72v9.34h.21q6-10.6,18-10.6,8.82,0,13.43,5.72t4.62,16.53V82.27Z"/><path class="b" d="M709.75,82.27V72.72h-.21a19.77,19.77,0,0,1-7.16,8,19,19,0,0,1-10.27,2.83,21.07,21.07,0,0,1-7-1.1,15.21,15.21,0,0,1-5.3-3.12,13.85,13.85,0,0,1-3.36-4.86,16,16,0,0,1-1.18-6.24q0-7.3,4.51-11.63t13.65-5.64l16.32-2.36q0-15.48-12-15.48-9.39,0-17.42,6.87V32.62a22.93,22.93,0,0,1,3.8-2.18,35.59,35.59,0,0,1,4.49-1.67,36.75,36.75,0,0,1,4.85-1.11,31.39,31.39,0,0,1,4.86-.39q9,0,13.56,5t4.6,15V82.27ZM695.89,56.19a41.66,41.66,0,0,0-6.19,1.31,12.72,12.72,0,0,0-4.25,2.12A8.05,8.05,0,0,0,683,62.93a13.23,13.23,0,0,0-.78,4.86,10.23,10.23,0,0,0,.76,4,8.82,8.82,0,0,0,2.2,3.18A10,10,0,0,0,688.68,77a14,14,0,0,0,4.69.74,15.48,15.48,0,0,0,11.73-5.15,17.42,17.42,0,0,0,3.42-5.77,21,21,0,0,0,1.23-7.29v-5.3Z"/><path class="b" d="M772.24,78.12q0,15-6.8,22.18t-21,7.21a36.9,36.9,0,0,1-16.69-3.93V96.76q8.78,4.88,16.69,4.88,21,0,21-22.26V72.93h-.21q-6.19,10.6-18.89,10.6a22,22,0,0,1-9.11-1.84,19.55,19.55,0,0,1-7.06-5.3A24.84,24.84,0,0,1,725.68,68a36,36,0,0,1-1.62-11.21,39.66,39.66,0,0,1,1.73-12,27.72,27.72,0,0,1,4.93-9.32,22.11,22.11,0,0,1,7.74-6,23.76,23.76,0,0,1,10.21-2.13q11.4,0,16.64,9.24h.21v-8h6.72Zm-6.72-28.49a16.69,16.69,0,0,0-1.21-6.35,16.2,16.2,0,0,0-8.47-8.85,15.77,15.77,0,0,0-6.54-1.33,17.34,17.34,0,0,0-7.58,1.62A16.45,16.45,0,0,0,736,39.34a21.27,21.27,0,0,0-3.68,7.27A33.31,33.31,0,0,0,731,56.24a30.9,30.9,0,0,0,1.2,8.92,20.22,20.22,0,0,0,3.41,6.77,15.3,15.3,0,0,0,5.33,4.31,15.73,15.73,0,0,0,7,1.52,17.57,17.57,0,0,0,7.24-1.45,16.41,16.41,0,0,0,5.56-4,18.11,18.11,0,0,0,3.57-6,21.37,21.37,0,0,0,1.26-7.42Z"/><path class="b" d="M787.48,56.61a30.29,30.29,0,0,0,1.31,8.87,18.88,18.88,0,0,0,3.62,6.66,15.56,15.56,0,0,0,5.75,4.17,19.17,19.17,0,0,0,7.64,1.45q9.08,0,17.16-6.35V78q-7.71,5.51-18.68,5.51a24.67,24.67,0,0,1-9.82-1.89,20.36,20.36,0,0,1-7.5-5.48,25,25,0,0,1-4.78-8.85,39.17,39.17,0,0,1-1.68-12,32.86,32.86,0,0,1,1.84-11.18,27.46,27.46,0,0,1,5.09-8.9,23.41,23.41,0,0,1,7.71-5.87,22.4,22.4,0,0,1,9.77-2.13,22,22,0,0,1,9.18,1.81,18,18,0,0,1,6.69,5.17,23.37,23.37,0,0,1,4.12,8.19,38.14,38.14,0,0,1,1.42,10.81v3.36Zm31.91-5.88c-.11-5.6-1.43-9.94-4-13s-6.1-4.61-10.65-4.61a16.48,16.48,0,0,0-6.33,1.2,15.15,15.15,0,0,0-5.11,3.49,18.75,18.75,0,0,0-3.65,5.57,27.72,27.72,0,0,0-2,7.37Z"/><path class="b" d="M861.09,35.4A10.05,10.05,0,0,0,855,33.67a10.31,10.31,0,0,0-4.72,1,12,12,0,0,0-3.6,2.75,16.7,16.7,0,0,0-2.62,4,26.93,26.93,0,0,0-1.73,4.75,33.9,33.9,0,0,0-1,5,42.62,42.62,0,0,0-.29,4.78V82.27h-6.66V28.53h6.66V40h.21a24,24,0,0,1,2.39-5.27A16.58,16.58,0,0,1,847,30.81a14,14,0,0,1,4.12-2.44,13.26,13.26,0,0,1,4.7-.84,18,18,0,0,1,2.91.21,11.09,11.09,0,0,1,2.34.63Z"/><path class="c" d="M6.59,11.64a16.9,16.9,0,0,0-.93,5.54A17.26,17.26,0,0,0,22.54,34.35V11.64Z"/><path class="c" d="M25.4,34.19A17.34,17.34,0,0,0,39.31,23.06H25.4Z"/><path class="c" d="M23,0A17.39,17.39,0,0,0,7.87,8.78H38.14A17.36,17.36,0,0,0,23,0Z"/><path class="c" d="M25.4,20.21H40.09a17.87,17.87,0,0,0,.26-3,16.9,16.9,0,0,0-.92-5.54h-14Z"/><path class="c" d="M32.6,49.76a3.11,3.11,0,0,0-4.39,0l-9.9,9.9L.91,77.06a3.11,3.11,0,0,0,0,4.39l7.7,7.7a3.11,3.11,0,0,0,4.39,0l27.3-27.3a3.11,3.11,0,0,0,0-4.39Z"/><path class="c" d="M82.6,22.82H62.33a3.1,3.1,0,0,0-3.1,3.11v2.43a3.1,3.1,0,0,0,3.1,3.1h8.19l-38,38a3.11,3.11,0,0,0,0,4.39l7.7,7.7a3.12,3.12,0,0,0,4.4,0l38-38v8.16a3.1,3.1,0,0,0,3.1,3.1h2.43a3.1,3.1,0,0,0,3.11-3.1V25.93a3.11,3.11,0,0,0-3.11-3.11Zm-.87,8.64h0Z"/><rect class="c" x="28.14" y="55.71" width="17.1" height="20.46" transform="translate(-35.88 45.26) rotate(-45)"/></svg>